# xmcd
#
# Track frame offsets:
#	150
#	21790
#	40972
#	63107
#	86150
#	108747
#	127997
#	146480
#	165080
#	184380
#	204150
#	215307
#	232245
#	241495
#
# Disc length: 3500 seconds
#
# Revision: 0
# Processed by: cddbd v1.5.2PL0 Copyright (c) Steve Scherf et al.
# Submitted via: audiograbber 1.83.01
#
DISCID=c00daa0e
DTITLE=Various Artist - West Fresno Blues Masters
DYEAR=1992
DGENRE=Blues
TTITLE0=Harmonica Slim - Highway 49
TTITLE1=Harmonica Slim - Baby, Please Don't Go
TTITLE2=Harmonica Slim - Mississippi Blues
TTITLE3=Harmonica Slim - Ain't Gonna Cheat On My Woman
TTITLE4=Harmonica Slim - I Don't Have No Woman
TTITLE5=Hosea Leavy - Goin' Back To The Country 
TTITLE6=Hosea Leavy - Black Nights
TTITLE7=Hosea Leavy - Can't Miss What You Ain't Never Had
TTITLE8=Hosea Leavy - St. Louis Blues
TTITLE9=Hosea Leavy - Searchin'
TTITLE10=Troyce Key - Get Greasy
TTITLE11=Johnny "Da-Doo" Wilson - Little Red Rooster
TTITLE12=Blues West - Brooklyn Boogie
TTITLE13=Blues West - My Home Is a Prison
EXTD=Fedora Records
EXTT0=
EXTT1=
EXTT2=
EXTT3=
EXTT4=
EXTT5=
EXTT6=
EXTT7=
EXTT8=
EXTT9=
EXTT10=
EXTT11=
EXTT12=
EXTT13=
PLAYORDER=
